<svg xmlns="http://www.w3.org/2000/svg" xmlns:xlink="http://www.w3.org/1999/xlink" version="1.0" id="Layer_1" x="0px" y="0px" viewBox="0 0 100 100" enable-background="new 0 0 100 100" xml:space="preserve" height="100px" width="100px">
<g>
	<path d="M94.6,51.7c0.3,2.5-1.7,4.7-3.1,4.7c-0.5,0-13.1-2.5-13.1-2.5c-0.6,1.8-1.8,5.6-3.9,8c-3.8,4.5-7.8,7.5-9.9,7.5   c-1.1,0-2.5-1-2.5-3.3c0-3.3,3.9-3.6,7-7.1c1.1-1.4,2.6-3.7,3.1-6c0,0-10.7-1.7-23.9-1.7c-7.3,0-17.3,1-24.8,2.6   c-9.9,2.1-15.3,4.9-17,4.9c-1.4,0-1.9-0.8-2-1.7c-0.1-1.4,0.5-2.4,1.1-3.1c2.1-2.4,6.4-4.1,14.7-5.9c8.6-1.8,18.2-2.5,27.2-2.5   c11.8,0,22.5,1.5,24.6,1.7c-0.6-4.4-4.8-9-6.7-10.3c-0.9-0.7-1-1.3-1-1.7c0.1-1.1,1.3-2.5,4.1-2.5C73,32.8,94.2,48.6,94.6,51.7z    M83.7,49l-5.5-4.1c0,0,0.5,0.9,0.6,3.4L83.7,49z"/>
</g>
</svg>